<?xml version="1.0" encoding="utf-8" ?><svg xmlns="http://www.w3.org/2000/svg" xmlns:xlink="http://www.w3.org/1999/xlink" width="1024" height="1024" viewBox="0 0 1024 1024"><path d="M551.989 358.675C555.817 358.139 568.335 358.904 572.438 359.262C611.689 362.428 648.04 381.174 673.38 411.316C704.807 449.041 712.755 492.284 708.53 540.039C682.373 540.936 654.339 539.638 627.954 539.524C598.438 539.389 568.922 539.08 539.409 538.599C525.574 538.425 510.544 538.688 496.894 538.171C501.633 556.181 507.346 571.754 524.31 581.689C540.426 591.129 560.696 593.107 578.583 588.199C595.576 583.536 603.391 575.142 611.849 560.551C631.741 560.354 651.523 560.711 671.401 561.229C681.752 561.5 692.165 561.242 702.511 561.773C699.177 579.703 685.014 605.288 673.355 619.191C622.647 679.663 519.561 679.336 460.961 631.058C430.647 606.189 411.616 570.169 408.156 531.113C404.113 488.204 415.125 444.949 443.01 411.513C464.42 385.892 493.962 368.379 526.715 361.889C535.447 360.109 543.147 359.464 551.989 358.675ZM496.167 487.54C505.036 487.427 513.588 487.791 522.399 487.828L563.625 487.605C572.18 487.7 581.523 487.739 590.001 487.903C595.226 488.003 617.145 489.045 621.169 488.26C619.555 452.523 591.924 429.093 556.631 430.684C521.051 434.239 501.484 451.753 496.167 487.54Z"></path><path d="M413.23 361.236L416.705 361.2C417.07 376 416.403 390.96 416.785 405.748C417.187 421.271 418.869 431.571 416.786 447.257C392.148 447.538 366.765 445.174 344.854 459.241C306.876 483.624 311.935 537.823 312.049 577.289L311.988 655.543C302.003 655.876 290.289 655.61 280.19 655.606L218.661 655.514C219.395 646.115 218.841 632.65 218.697 623.139C218.447 608.219 218.399 593.296 218.553 578.375L218.483 435.008C218.485 412.939 219.026 390.995 218.726 368.968C250.879 369.343 283.04 368.704 315.161 368.931C313.936 377.481 313.346 389.696 312.57 398.574C311.095 415.191 309.327 431.78 307.267 448.334C315.342 428.168 318.561 409.926 334.658 392.733C355.317 370.667 383.875 362.381 413.23 361.236Z"></path><path fill="#F94806" d="M716.006 561.251L806.069 561.386L805.987 624.237C805.995 634.133 806.352 645.805 805.899 655.537C775.792 655.411 745.684 655.45 715.577 655.653C715.641 624.29 715.132 592.584 716.006 561.251Z"></path></svg>