<?xml version="1.0" encoding="utf-8" ?><svg xmlns="http://www.w3.org/2000/svg" xmlns:xlink="http://www.w3.org/1999/xlink" width="1024" height="1024" viewBox="0 0 1024 1024"><path fill="white" d="M0 0L1024 0L1024 1024L0 1024L0 0Z"></path><path d="M550.139 358.712C557.579 358.237 567.137 358.689 574.537 359.413C613.557 362.995 649.523 382.037 674.418 412.295C705.299 450.052 713.4 492.912 708.643 540.416C686.376 540.329 664.11 540.089 641.846 539.696L497.249 538.447C501.367 557.437 509.296 573.609 527.183 583.145C542.952 591.551 563.043 592.819 580.094 587.768C595.594 583.176 604.354 574.45 611.782 560.465C632.451 560.453 653.12 560.699 673.783 561.201C681.743 561.354 694.516 561.102 702.028 561.791L702.235 562.725C697.829 582.645 685.449 605.847 672.216 621.05C620.403 680.572 515.637 679.214 458.288 629.065C428.055 602.822 409.765 565.435 407.604 525.46C402.179 438.194 460.225 364.004 550.139 358.712Z"></path><path fill="white" d="M556.824 430.716C584.97 429.814 610.031 444.261 618.222 471.941C619.856 477.46 620.579 482.568 621.33 488.229C602.894 488.62 582.065 487.615 563.264 487.601C542.239 487.587 516.815 488.185 496.145 487.126C501.48 452.707 522.129 432.921 556.824 430.716Z"></path><path d="M309.313 442.716C311.069 435.518 315.048 426.979 317.791 420.029C334.226 378.39 373.896 361.68 416.986 360.942L416.997 447.369L416.053 447.36C386.942 447.078 356.341 445.433 334.349 467.888C308.407 494.377 312.425 541.823 312.449 576.019L312.329 655.869C281.267 655.692 249.81 656.194 218.834 655.63C217.933 601.749 218.711 546.366 218.644 492.345L218.577 413.618C218.576 399.001 218.274 383.324 218.796 368.831C250.308 369.581 283.553 368.898 315.204 368.934C313.562 391.229 311.054 419.72 308.268 441.872L309.313 442.716Z"></path><path fill="#BEBFC1" d="M308.268 441.872L309.313 442.716L308.404 445.253L307.76 444.646L308.268 441.872Z"></path><path fill="#6C6A6C" d="M308.404 445.253C308.26 445.635 308.162 446.128 307.819 446.304C307.28 446.054 307.652 445.058 307.76 444.646L308.404 445.253Z"></path><path fill="#F84807" d="M715.868 561.404L806.094 561.37L805.969 655.705C776.157 655.285 745.609 655.571 715.752 655.629C715.132 625.006 715.776 592.188 715.868 561.404Z"></path></svg>