<?xml version="1.0" encoding="utf-8" ?><svg xmlns="http://www.w3.org/2000/svg" xmlns:xlink="http://www.w3.org/1999/xlink" width="1024" height="1024" viewBox="0 0 1024 1024"><path fill="#DCDCDB" d="M596.029 365.28C601.63 364.851 608.115 365.189 613.759 365.499C653.508 367.682 694.704 384.072 721.317 414.339C741.902 437.749 753.731 469.678 756.309 500.673C757.118 510.407 756.599 522.251 756.004 531.996C724.959 530.945 691.091 531.562 659.8 531.552L513.238 531.637C513.431 532.432 513.63 533.226 513.834 534.019C519.569 556.235 530.535 573.678 550.945 585.612C585.159 605.616 636.245 603.102 665.453 574.936C670.693 569.883 674.571 563.364 678.169 557.114C692.536 556.702 709.427 556.967 723.875 557.247C732.572 557.471 741.678 557.36 750.406 557.379C746.403 575.026 732.446 600.439 720.246 613.531C691.859 643.819 652.129 657.957 611.359 659.624C522.501 663.256 445.473 613.24 441.599 517.729C440.288 479.111 454.411 441.561 480.849 413.381C512.092 379.797 551.593 366.962 596.029 365.28ZM516.434 485.919L604.2 485.795C621.416 485.653 638.632 485.603 655.849 485.644C663.624 485.655 674.962 485.36 682.423 485.877C676.134 463.789 668.122 446.289 646.976 434.534C632.897 426.708 610.961 422.797 594.909 424.212C554.858 427.929 526.871 445.681 516.434 485.919Z"></path><path fill="#DCDCDB" d="M435.903 367.213C437.761 366.963 442.422 366.881 444.483 366.792L444.531 452.028C439.798 451.716 435.056 451.53 430.313 451.469C408.197 451.333 385.961 455.822 369.697 471.882C344.68 496.586 349.443 536.816 349.479 569.122L349.508 652.983L299.725 652.661C292.151 652.666 283.007 652.467 275.526 652.931L275.508 593.75L275.451 368.974L349.654 369.059C348.827 391.933 349.754 417.206 349.66 440.251C360.875 396.673 390.895 370.626 435.903 367.213Z"></path><path fill="#FE5808" d="M795.061 571.695C819.026 568.398 841.139 585.117 844.499 609.073C847.859 633.028 831.198 655.185 807.252 658.608C783.215 662.044 760.958 645.308 757.586 621.263C754.213 597.218 771.008 575.004 795.061 571.695Z"></path></svg>